<?xml version="1.0" encoding="utf-8"?>
<!-- Generator: Adobe Illustrator 28.3.0, SVG Export Plug-In . SVG Version: 6.00 Build 0)  -->
<svg version="1.1" id="Слой_1" xmlns="http://www.w3.org/2000/svg" xmlns:xlink="http://www.w3.org/1999/xlink" x="0px" y="0px"
	 viewBox="0 0 1168.29 1080" style="enable-background:new 0 0 1168.29 1080;" xml:space="preserve">
<style type="text/css">
	.st0{display:none;}
	.st1{fill:#FFFFFF;}
</style>
<rect class="st0" width="1168.29" height="1080"/>
<g>
	<g>
		<path class="st1" d="M177.64,607.34V500.2h31.64l35.64,90.42h1.93l35.5-90.42h31.71v107.14h-17.07v-89.85h-1.71l-36.85,89.85
			h-25.07l-37-89.85h-1.64v89.85H177.64z"/>
		<path class="st1" d="M394.84,607.34V576.7h-6.07l-38-76.49h19.78l32.57,68h1.29l32.57-68h19.78l-37.93,76.49h-5.86v30.64H394.84z"
			/>
		<path class="st1" d="M493.62,500.2h18l-0.36,48.71h1.57l49.35-48.71h21.64l-52.57,50.07l-12.36,2.29v1.86l13.5,2.29l53.92,50.64
			H562.9l-50-49.71h-1.64l0.36,49.71h-18V500.2z"/>
		<path class="st1" d="M620.4,595.91c-8.81-9.33-13.24-23.71-13.28-43.14c0-12.19,2.45-22.41,7.36-30.68
			c4.9-8.26,11.28-14.38,19.14-18.36c7.86-3.98,16.28-5.96,25.28-5.96c17.71,0,30.91,4.71,39.6,14.14
			c8.69,9.43,13.03,23.83,13.03,43.21c0,12-2.29,22.11-6.86,30.32c-4.57,8.21-10.78,14.34-18.64,18.39
			c-7.86,4.05-16.71,6.07-26.57,6.07C642.23,609.91,629.2,605.24,620.4,595.91z M635.25,584.02c6.38,6.36,14.62,9.53,24.71,9.53
			c6.86,0,12.68-1.08,17.46-3.25c4.79-2.17,8.57-6.07,11.36-11.71c2.79-5.64,4.18-13.46,4.18-23.46c0-9.86-1.55-17.83-4.64-23.93
			c-3.1-6.09-7.2-10.45-12.32-13.07c-5.12-2.62-10.92-3.93-17.39-3.93c-6.9,0-12.74,1.08-17.5,3.25
			c-4.76,2.17-8.52,6.08-11.28,11.75c-2.76,5.67-4.17,13.52-4.21,23.57C625.66,567.25,628.87,577.66,635.25,584.02z"/>
		<path class="st1" d="M752.74,607.34V500.2h45.64c15.62,0,27.29,2.42,35.03,7.25c7.74,4.83,11.61,12.65,11.61,23.46
			c0,5.33-0.89,9.82-2.68,13.46c-1.79,3.64-4.61,6.6-8.46,8.86c-3.86,2.26-8.93,3.92-15.21,4.96v1.86c9,1.05,15.64,3.75,19.93,8.11
			s6.43,10.32,6.43,17.89c0,4.38,0.33,8.13,1,11.25c0.67,3.12,1.69,5.92,3.07,8.39v1.64h-19.5c-1.1-2-1.87-4.61-2.32-7.82
			c-0.45-3.21-0.68-7.27-0.68-12.18c0-5.05-0.99-8.94-2.96-11.68c-1.98-2.74-5.18-4.67-9.61-5.79c-4.43-1.12-10.6-1.68-18.5-1.68
			h-24.78v39.14H752.74z M795.1,552.63c10,0,17.64-1.38,22.93-4.14c5.29-2.76,7.93-7.67,7.93-14.71c0-4.81-1.08-8.46-3.25-10.96
			c-2.17-2.5-5.26-4.18-9.29-5.04c-4.02-0.86-9.37-1.29-16.03-1.29h-26.64v36.14H795.1z"/>
		<polygon class="st1" points="942.16,470.09 960.92,470.09 942.01,491.7 929.11,491.7 		"/>
		<polygon class="st1" points="963.15,585.27 963.14,585.27 965.88,592.78 		"/>
		<polygon class="st1" points="990.65,607.34 950.87,500.2 919.37,500.2 879.45,607.34 898.52,607.34 906.44,585.27 906.49,585.27 
			921.34,544.54 933.37,511.42 936.3,511.42 951.68,553.77 951.68,553.77 963.14,585.27 963.15,585.27 965.88,592.78 965.88,592.79 
			965.88,592.79 971.15,607.34 		"/>
		<polygon class="st1" points="965.88,592.78 965.88,592.79 965.88,592.79 		"/>
	</g>
</g>
</svg>
